<mxfile host="app.diagrams.net" modified="2023-06-20T03:35:45.858Z" agent="Mozilla/5.0 (Windows NT 10.0; Win64; x64) AppleWebKit/537.36 (KHTML, like Gecko) Chrome/105.0.0.0 Safari/537.36" etag="SzNyp--ZAKlguuPGbR8o" version="21.5.0" type="github">
  <diagram name="第 1 页" id="XuOfod9vMwEjzDefurnS">
    <mxGraphModel dx="1434" dy="708" grid="1" gridSize="10" guides="1" tooltips="1" connect="1" arrows="1" fold="1" page="1" pageScale="1" pageWidth="827" pageHeight="1169" math="0" shadow="0">
      <root>
        <mxCell id="0" />
        <mxCell id="1" parent="0" />
        <mxCell id="TXO3B46GOps3A5h4OWii-1" value="" style="rounded=0;whiteSpace=wrap;html=1;dashed=1;" parent="1" vertex="1">
          <mxGeometry x="1300" y="120" width="200" height="1460" as="geometry" />
        </mxCell>
        <mxCell id="TXO3B46GOps3A5h4OWii-2" value="" style="rounded=0;whiteSpace=wrap;html=1;dashed=1;" parent="1" vertex="1">
          <mxGeometry x="1100" y="120" width="200" height="1460" as="geometry" />
        </mxCell>
        <mxCell id="TXO3B46GOps3A5h4OWii-3" value="" style="rounded=0;whiteSpace=wrap;html=1;dashed=1;" parent="1" vertex="1">
          <mxGeometry x="900" y="120" width="200" height="1460" as="geometry" />
        </mxCell>
        <mxCell id="TXO3B46GOps3A5h4OWii-4" value="" style="rounded=0;whiteSpace=wrap;html=1;dashed=1;" parent="1" vertex="1">
          <mxGeometry x="700" y="120" width="200" height="1460" as="geometry" />
        </mxCell>
        <mxCell id="TXO3B46GOps3A5h4OWii-5" value="" style="rounded=0;whiteSpace=wrap;html=1;dashed=1;" parent="1" vertex="1">
          <mxGeometry x="100" y="120" width="200" height="1460" as="geometry" />
        </mxCell>
        <mxCell id="TXO3B46GOps3A5h4OWii-6" value="" style="rounded=0;whiteSpace=wrap;html=1;dashed=1;" parent="1" vertex="1">
          <mxGeometry x="300" y="120" width="200" height="1460" as="geometry" />
        </mxCell>
        <mxCell id="TXO3B46GOps3A5h4OWii-7" value="" style="rounded=0;whiteSpace=wrap;html=1;dashed=1;" parent="1" vertex="1">
          <mxGeometry x="500" y="120" width="200" height="1460" as="geometry" />
        </mxCell>
        <mxCell id="TXO3B46GOps3A5h4OWii-8" value="APP" style="rounded=0;whiteSpace=wrap;html=1;" parent="1" vertex="1">
          <mxGeometry x="100" y="60" width="200" height="60" as="geometry" />
        </mxCell>
        <mxCell id="TXO3B46GOps3A5h4OWii-9" value="a-service" style="rounded=0;whiteSpace=wrap;html=1;" parent="1" vertex="1">
          <mxGeometry x="300" y="60" width="200" height="60" as="geometry" />
        </mxCell>
        <mxCell id="TXO3B46GOps3A5h4OWii-10" value="u-service" style="rounded=0;whiteSpace=wrap;html=1;" parent="1" vertex="1">
          <mxGeometry x="500" y="60" width="200" height="60" as="geometry" />
        </mxCell>
        <mxCell id="TXO3B46GOps3A5h4OWii-11" value="用户中心" style="rounded=0;whiteSpace=wrap;html=1;" parent="1" vertex="1">
          <mxGeometry x="900" y="60" width="200" height="60" as="geometry" />
        </mxCell>
        <mxCell id="TXO3B46GOps3A5h4OWii-12" value="积分服务" style="rounded=0;whiteSpace=wrap;html=1;" parent="1" vertex="1">
          <mxGeometry x="700" y="60" width="200" height="60" as="geometry" />
        </mxCell>
        <mxCell id="TXO3B46GOps3A5h4OWii-13" value="风控系统" style="rounded=0;whiteSpace=wrap;html=1;" parent="1" vertex="1">
          <mxGeometry x="1100" y="60" width="200" height="60" as="geometry" />
        </mxCell>
        <mxCell id="TXO3B46GOps3A5h4OWii-14" style="edgeStyle=orthogonalEdgeStyle;rounded=0;orthogonalLoop=1;jettySize=auto;html=1;exitX=1;exitY=0.5;exitDx=0;exitDy=0;exitPerimeter=0;entryX=0;entryY=0.5;entryDx=0;entryDy=0;" parent="1" source="TXO3B46GOps3A5h4OWii-15" target="TXO3B46GOps3A5h4OWii-17" edge="1">
          <mxGeometry relative="1" as="geometry" />
        </mxCell>
        <mxCell id="TXO3B46GOps3A5h4OWii-15" value="发起领取&lt;br&gt;积分请求" style="strokeWidth=2;html=1;shape=mxgraph.flowchart.terminator;whiteSpace=wrap;" parent="1" vertex="1">
          <mxGeometry x="150" y="140" width="100" height="60" as="geometry" />
        </mxCell>
        <mxCell id="TXO3B46GOps3A5h4OWii-16" style="edgeStyle=orthogonalEdgeStyle;rounded=0;orthogonalLoop=1;jettySize=auto;html=1;exitX=1;exitY=0.5;exitDx=0;exitDy=0;entryX=0;entryY=0.5;entryDx=0;entryDy=0;" parent="1" source="TXO3B46GOps3A5h4OWii-17" target="TXO3B46GOps3A5h4OWii-19" edge="1">
          <mxGeometry relative="1" as="geometry" />
        </mxCell>
        <mxCell id="TXO3B46GOps3A5h4OWii-17" value="校验参数，校验任务状态，校验用户地区等，并进行用户鉴权" style="rounded=1;whiteSpace=wrap;html=1;absoluteArcSize=1;arcSize=14;strokeWidth=2;" parent="1" vertex="1">
          <mxGeometry x="325" y="140" width="150" height="60" as="geometry" />
        </mxCell>
        <mxCell id="TXO3B46GOps3A5h4OWii-18" style="edgeStyle=orthogonalEdgeStyle;rounded=0;orthogonalLoop=1;jettySize=auto;html=1;exitX=0.5;exitY=1;exitDx=0;exitDy=0;entryX=1;entryY=0.5;entryDx=0;entryDy=0;entryPerimeter=0;" parent="1" source="TXO3B46GOps3A5h4OWii-19" target="TXO3B46GOps3A5h4OWii-22" edge="1">
          <mxGeometry relative="1" as="geometry" />
        </mxCell>
        <mxCell id="TXO3B46GOps3A5h4OWii-19" value="用户鉴权" style="rounded=1;whiteSpace=wrap;html=1;absoluteArcSize=1;arcSize=14;strokeWidth=2;" parent="1" vertex="1">
          <mxGeometry x="925" y="140" width="150" height="60" as="geometry" />
        </mxCell>
        <mxCell id="TXO3B46GOps3A5h4OWii-20" style="edgeStyle=orthogonalEdgeStyle;rounded=0;orthogonalLoop=1;jettySize=auto;html=1;exitX=0;exitY=0.5;exitDx=0;exitDy=0;exitPerimeter=0;entryX=0.5;entryY=0;entryDx=0;entryDy=0;entryPerimeter=0;" parent="1" source="TXO3B46GOps3A5h4OWii-22" target="TXO3B46GOps3A5h4OWii-23" edge="1">
          <mxGeometry relative="1" as="geometry" />
        </mxCell>
        <mxCell id="TXO3B46GOps3A5h4OWii-21" style="edgeStyle=orthogonalEdgeStyle;rounded=0;orthogonalLoop=1;jettySize=auto;html=1;exitX=0.5;exitY=1;exitDx=0;exitDy=0;exitPerimeter=0;entryX=0.5;entryY=0;entryDx=0;entryDy=0;" parent="1" source="TXO3B46GOps3A5h4OWii-22" target="TXO3B46GOps3A5h4OWii-25" edge="1">
          <mxGeometry relative="1" as="geometry" />
        </mxCell>
        <mxCell id="TXO3B46GOps3A5h4OWii-22" value="成功？" style="strokeWidth=2;html=1;shape=mxgraph.flowchart.decision;whiteSpace=wrap;" parent="1" vertex="1">
          <mxGeometry x="325" y="230" width="150" height="60" as="geometry" />
        </mxCell>
        <mxCell id="TXO3B46GOps3A5h4OWii-23" value="流程结束" style="strokeWidth=2;html=1;shape=mxgraph.flowchart.terminator;whiteSpace=wrap;" parent="1" vertex="1">
          <mxGeometry x="150" y="1490" width="100" height="60" as="geometry" />
        </mxCell>
        <mxCell id="TXO3B46GOps3A5h4OWii-24" style="edgeStyle=orthogonalEdgeStyle;rounded=0;orthogonalLoop=1;jettySize=auto;html=1;exitX=1;exitY=0.5;exitDx=0;exitDy=0;entryX=0;entryY=0.5;entryDx=0;entryDy=0;" parent="1" source="TXO3B46GOps3A5h4OWii-25" target="TXO3B46GOps3A5h4OWii-27" edge="1">
          <mxGeometry relative="1" as="geometry" />
        </mxCell>
        <mxCell id="TXO3B46GOps3A5h4OWii-25" value="发放积分" style="rounded=1;whiteSpace=wrap;html=1;absoluteArcSize=1;arcSize=14;strokeWidth=2;" parent="1" vertex="1">
          <mxGeometry x="325" y="320" width="150" height="60" as="geometry" />
        </mxCell>
        <mxCell id="TXO3B46GOps3A5h4OWii-26" style="edgeStyle=orthogonalEdgeStyle;rounded=0;orthogonalLoop=1;jettySize=auto;html=1;exitX=0.5;exitY=1;exitDx=0;exitDy=0;entryX=0.5;entryY=0;entryDx=0;entryDy=0;" parent="1" source="TXO3B46GOps3A5h4OWii-27" target="TXO3B46GOps3A5h4OWii-29" edge="1">
          <mxGeometry relative="1" as="geometry" />
        </mxCell>
        <mxCell id="TXO3B46GOps3A5h4OWii-27" value="获取用户操作锁" style="rounded=1;whiteSpace=wrap;html=1;absoluteArcSize=1;arcSize=14;strokeWidth=2;" parent="1" vertex="1">
          <mxGeometry x="525" y="320" width="150" height="60" as="geometry" />
        </mxCell>
        <mxCell id="TXO3B46GOps3A5h4OWii-28" style="edgeStyle=orthogonalEdgeStyle;rounded=0;orthogonalLoop=1;jettySize=auto;html=1;exitX=1;exitY=0.5;exitDx=0;exitDy=0;entryX=0;entryY=0.5;entryDx=0;entryDy=0;" parent="1" source="TXO3B46GOps3A5h4OWii-29" target="TXO3B46GOps3A5h4OWii-31" edge="1">
          <mxGeometry relative="1" as="geometry" />
        </mxCell>
        <mxCell id="TXO3B46GOps3A5h4OWii-29" value="获取风控结果" style="rounded=1;whiteSpace=wrap;html=1;absoluteArcSize=1;arcSize=14;strokeWidth=2;" parent="1" vertex="1">
          <mxGeometry x="525" y="420" width="150" height="60" as="geometry" />
        </mxCell>
        <mxCell id="TXO3B46GOps3A5h4OWii-30" style="edgeStyle=orthogonalEdgeStyle;rounded=1;orthogonalLoop=1;jettySize=auto;html=1;exitX=0.5;exitY=1;exitDx=0;exitDy=0;entryX=1;entryY=0.5;entryDx=0;entryDy=0;entryPerimeter=0;" parent="1" source="TXO3B46GOps3A5h4OWii-31" target="TXO3B46GOps3A5h4OWii-34" edge="1">
          <mxGeometry relative="1" as="geometry" />
        </mxCell>
        <mxCell id="TXO3B46GOps3A5h4OWii-31" value="风控" style="rounded=1;whiteSpace=wrap;html=1;absoluteArcSize=1;arcSize=14;strokeWidth=2;" parent="1" vertex="1">
          <mxGeometry x="1125" y="420" width="150" height="60" as="geometry" />
        </mxCell>
        <mxCell id="TXO3B46GOps3A5h4OWii-32" style="edgeStyle=orthogonalEdgeStyle;rounded=0;orthogonalLoop=1;jettySize=auto;html=1;exitX=0;exitY=0.5;exitDx=0;exitDy=0;exitPerimeter=0;" parent="1" source="TXO3B46GOps3A5h4OWii-34" edge="1">
          <mxGeometry relative="1" as="geometry">
            <mxPoint x="200" y="550.0000000000005" as="targetPoint" />
          </mxGeometry>
        </mxCell>
        <mxCell id="TXO3B46GOps3A5h4OWii-33" style="edgeStyle=orthogonalEdgeStyle;rounded=0;orthogonalLoop=1;jettySize=auto;html=1;exitX=0.5;exitY=1;exitDx=0;exitDy=0;exitPerimeter=0;entryX=0.5;entryY=0;entryDx=0;entryDy=0;" parent="1" source="TXO3B46GOps3A5h4OWii-34" target="TXO3B46GOps3A5h4OWii-36" edge="1">
          <mxGeometry relative="1" as="geometry" />
        </mxCell>
        <mxCell id="TXO3B46GOps3A5h4OWii-34" value="通过风控" style="strokeWidth=2;html=1;shape=mxgraph.flowchart.decision;whiteSpace=wrap;" parent="1" vertex="1">
          <mxGeometry x="525" y="520" width="150" height="60" as="geometry" />
        </mxCell>
        <mxCell id="TXO3B46GOps3A5h4OWii-35" style="edgeStyle=orthogonalEdgeStyle;rounded=0;orthogonalLoop=1;jettySize=auto;html=1;exitX=0.5;exitY=1;exitDx=0;exitDy=0;entryX=0.5;entryY=0;entryDx=0;entryDy=0;entryPerimeter=0;" parent="1" source="TXO3B46GOps3A5h4OWii-36" target="TXO3B46GOps3A5h4OWii-39" edge="1">
          <mxGeometry relative="1" as="geometry" />
        </mxCell>
        <mxCell id="TXO3B46GOps3A5h4OWii-36" value="请求参数与已领取记录缓存比较，去除掉已领取的积分" style="rounded=1;whiteSpace=wrap;html=1;absoluteArcSize=1;arcSize=14;strokeWidth=2;" parent="1" vertex="1">
          <mxGeometry x="525" y="620" width="150" height="60" as="geometry" />
        </mxCell>
        <mxCell id="TXO3B46GOps3A5h4OWii-37" style="edgeStyle=orthogonalEdgeStyle;rounded=0;orthogonalLoop=1;jettySize=auto;html=1;exitX=0;exitY=0.5;exitDx=0;exitDy=0;exitPerimeter=0;" parent="1" source="TXO3B46GOps3A5h4OWii-39" edge="1">
          <mxGeometry relative="1" as="geometry">
            <mxPoint x="200" y="750.0000000000005" as="targetPoint" />
          </mxGeometry>
        </mxCell>
        <mxCell id="TXO3B46GOps3A5h4OWii-38" style="edgeStyle=orthogonalEdgeStyle;rounded=0;orthogonalLoop=1;jettySize=auto;html=1;exitX=0.5;exitY=1;exitDx=0;exitDy=0;exitPerimeter=0;entryX=0.5;entryY=0;entryDx=0;entryDy=0;" parent="1" source="TXO3B46GOps3A5h4OWii-39" target="TXO3B46GOps3A5h4OWii-41" edge="1">
          <mxGeometry relative="1" as="geometry" />
        </mxCell>
        <mxCell id="TXO3B46GOps3A5h4OWii-39" value="是否仍有待领取积分" style="strokeWidth=2;html=1;shape=mxgraph.flowchart.decision;whiteSpace=wrap;" parent="1" vertex="1">
          <mxGeometry x="525" y="720" width="150" height="60" as="geometry" />
        </mxCell>
        <mxCell id="TXO3B46GOps3A5h4OWii-40" style="edgeStyle=orthogonalEdgeStyle;rounded=0;orthogonalLoop=1;jettySize=auto;html=1;exitX=0.5;exitY=1;exitDx=0;exitDy=0;entryX=0.5;entryY=0;entryDx=0;entryDy=0;" parent="1" source="TXO3B46GOps3A5h4OWii-41" target="TXO3B46GOps3A5h4OWii-44" edge="1">
          <mxGeometry relative="1" as="geometry" />
        </mxCell>
        <mxCell id="TXO3B46GOps3A5h4OWii-41" value="删除已领取记录缓存" style="rounded=1;whiteSpace=wrap;html=1;absoluteArcSize=1;arcSize=14;strokeWidth=2;" parent="1" vertex="1">
          <mxGeometry x="525" y="820" width="150" height="60" as="geometry" />
        </mxCell>
        <mxCell id="TXO3B46GOps3A5h4OWii-42" style="edgeStyle=orthogonalEdgeStyle;rounded=0;orthogonalLoop=1;jettySize=auto;html=1;exitX=0.5;exitY=1;exitDx=0;exitDy=0;entryX=0.5;entryY=0;entryDx=0;entryDy=0;entryPerimeter=0;" parent="1" source="TXO3B46GOps3A5h4OWii-44" target="TXO3B46GOps3A5h4OWii-47" edge="1">
          <mxGeometry relative="1" as="geometry" />
        </mxCell>
        <mxCell id="TXO3B46GOps3A5h4OWii-43" style="edgeStyle=orthogonalEdgeStyle;rounded=0;orthogonalLoop=1;jettySize=auto;html=1;exitX=1;exitY=0.5;exitDx=0;exitDy=0;" parent="1" source="TXO3B46GOps3A5h4OWii-44" target="TXO3B46GOps3A5h4OWii-76" edge="1">
          <mxGeometry relative="1" as="geometry" />
        </mxCell>
        <mxCell id="TXO3B46GOps3A5h4OWii-44" value="创建积分订单并更新领取记录数据库" style="rounded=1;whiteSpace=wrap;html=1;absoluteArcSize=1;arcSize=14;strokeWidth=2;" parent="1" vertex="1">
          <mxGeometry x="525" y="920" width="150" height="60" as="geometry" />
        </mxCell>
        <mxCell id="TXO3B46GOps3A5h4OWii-45" style="edgeStyle=orthogonalEdgeStyle;rounded=0;orthogonalLoop=1;jettySize=auto;html=1;exitX=0;exitY=0.5;exitDx=0;exitDy=0;exitPerimeter=0;" parent="1" source="TXO3B46GOps3A5h4OWii-47" edge="1">
          <mxGeometry relative="1" as="geometry">
            <mxPoint x="200" y="1050.0000000000005" as="targetPoint" />
          </mxGeometry>
        </mxCell>
        <mxCell id="TXO3B46GOps3A5h4OWii-46" style="edgeStyle=orthogonalEdgeStyle;rounded=0;orthogonalLoop=1;jettySize=auto;html=1;exitX=0.5;exitY=1;exitDx=0;exitDy=0;exitPerimeter=0;entryX=0.5;entryY=0;entryDx=0;entryDy=0;" parent="1" source="TXO3B46GOps3A5h4OWii-47" target="TXO3B46GOps3A5h4OWii-50" edge="1">
          <mxGeometry relative="1" as="geometry" />
        </mxCell>
        <mxCell id="TXO3B46GOps3A5h4OWii-47" value="成功？" style="strokeWidth=2;html=1;shape=mxgraph.flowchart.decision;whiteSpace=wrap;" parent="1" vertex="1">
          <mxGeometry x="525" y="1020" width="150" height="60" as="geometry" />
        </mxCell>
        <mxCell id="TXO3B46GOps3A5h4OWii-48" style="edgeStyle=orthogonalEdgeStyle;rounded=0;orthogonalLoop=1;jettySize=auto;html=1;exitX=1;exitY=0.5;exitDx=0;exitDy=0;entryX=0;entryY=0.5;entryDx=0;entryDy=0;" parent="1" source="TXO3B46GOps3A5h4OWii-50" target="TXO3B46GOps3A5h4OWii-52" edge="1">
          <mxGeometry relative="1" as="geometry" />
        </mxCell>
        <mxCell id="TXO3B46GOps3A5h4OWii-49" style="edgeStyle=orthogonalEdgeStyle;rounded=0;orthogonalLoop=1;jettySize=auto;html=1;exitX=0.5;exitY=1;exitDx=0;exitDy=0;entryX=0.5;entryY=0;entryDx=0;entryDy=0;entryPerimeter=0;" parent="1" source="TXO3B46GOps3A5h4OWii-50" target="TXO3B46GOps3A5h4OWii-55" edge="1">
          <mxGeometry relative="1" as="geometry" />
        </mxCell>
        <mxCell id="TXO3B46GOps3A5h4OWii-50" value="调用积分系统&lt;br&gt;发放积分接口" style="rounded=1;whiteSpace=wrap;html=1;absoluteArcSize=1;arcSize=14;strokeWidth=2;" parent="1" vertex="1">
          <mxGeometry x="525" y="1120" width="150" height="60" as="geometry" />
        </mxCell>
        <mxCell id="TXO3B46GOps3A5h4OWii-51" style="edgeStyle=orthogonalEdgeStyle;rounded=0;orthogonalLoop=1;jettySize=auto;html=1;exitX=0.5;exitY=1;exitDx=0;exitDy=0;entryX=1;entryY=0.5;entryDx=0;entryDy=0;entryPerimeter=0;" parent="1" source="TXO3B46GOps3A5h4OWii-52" target="TXO3B46GOps3A5h4OWii-55" edge="1">
          <mxGeometry relative="1" as="geometry" />
        </mxCell>
        <mxCell id="TXO3B46GOps3A5h4OWii-52" value="发放积分" style="rounded=1;whiteSpace=wrap;html=1;absoluteArcSize=1;arcSize=14;strokeWidth=2;" parent="1" vertex="1">
          <mxGeometry x="725" y="1120" width="150" height="60" as="geometry" />
        </mxCell>
        <mxCell id="TXO3B46GOps3A5h4OWii-53" style="edgeStyle=orthogonalEdgeStyle;rounded=0;orthogonalLoop=1;jettySize=auto;html=1;exitX=0;exitY=0.5;exitDx=0;exitDy=0;exitPerimeter=0;" parent="1" source="TXO3B46GOps3A5h4OWii-55" edge="1">
          <mxGeometry relative="1" as="geometry">
            <mxPoint x="200" y="1250.0000000000005" as="targetPoint" />
          </mxGeometry>
        </mxCell>
        <mxCell id="TXO3B46GOps3A5h4OWii-54" style="edgeStyle=orthogonalEdgeStyle;rounded=0;orthogonalLoop=1;jettySize=auto;html=1;exitX=0.5;exitY=1;exitDx=0;exitDy=0;exitPerimeter=0;" parent="1" source="TXO3B46GOps3A5h4OWii-55" target="TXO3B46GOps3A5h4OWii-58" edge="1">
          <mxGeometry relative="1" as="geometry" />
        </mxCell>
        <mxCell id="TXO3B46GOps3A5h4OWii-55" value="成功？" style="strokeWidth=2;html=1;shape=mxgraph.flowchart.decision;whiteSpace=wrap;" parent="1" vertex="1">
          <mxGeometry x="525" y="1220" width="150" height="60" as="geometry" />
        </mxCell>
        <mxCell id="TXO3B46GOps3A5h4OWii-56" style="edgeStyle=orthogonalEdgeStyle;rounded=0;orthogonalLoop=1;jettySize=auto;html=1;exitX=0;exitY=0.5;exitDx=0;exitDy=0;" parent="1" source="TXO3B46GOps3A5h4OWii-58" edge="1">
          <mxGeometry relative="1" as="geometry">
            <mxPoint x="200" y="1350" as="targetPoint" />
          </mxGeometry>
        </mxCell>
        <mxCell id="TXO3B46GOps3A5h4OWii-57" style="edgeStyle=orthogonalEdgeStyle;rounded=0;orthogonalLoop=1;jettySize=auto;html=1;exitX=1;exitY=0.5;exitDx=0;exitDy=0;entryX=1;entryY=0.5;entryDx=0;entryDy=0;" parent="1" source="TXO3B46GOps3A5h4OWii-58" target="TXO3B46GOps3A5h4OWii-52" edge="1">
          <mxGeometry relative="1" as="geometry">
            <Array as="points">
              <mxPoint x="890" y="1350" />
              <mxPoint x="890" y="1150" />
            </Array>
          </mxGeometry>
        </mxCell>
        <mxCell id="TXO3B46GOps3A5h4OWii-58" value="生成重试mq消息并消费，进行重试" style="rounded=1;whiteSpace=wrap;html=1;absoluteArcSize=1;arcSize=14;strokeWidth=2;" parent="1" vertex="1">
          <mxGeometry x="525" y="1320" width="150" height="60" as="geometry" />
        </mxCell>
        <mxCell id="TXO3B46GOps3A5h4OWii-59" value="否" style="text;html=1;strokeColor=none;fillColor=none;align=center;verticalAlign=middle;whiteSpace=wrap;rounded=0;" parent="1" vertex="1">
          <mxGeometry x="300" y="240" width="40" height="20" as="geometry" />
        </mxCell>
        <mxCell id="TXO3B46GOps3A5h4OWii-60" value="是" style="text;html=1;strokeColor=none;fillColor=none;align=center;verticalAlign=middle;whiteSpace=wrap;rounded=0;" parent="1" vertex="1">
          <mxGeometry x="400" y="290" width="40" height="20" as="geometry" />
        </mxCell>
        <mxCell id="TXO3B46GOps3A5h4OWii-61" value="否" style="text;html=1;strokeColor=none;fillColor=none;align=center;verticalAlign=middle;whiteSpace=wrap;rounded=0;" parent="1" vertex="1">
          <mxGeometry x="490" y="530" width="40" height="20" as="geometry" />
        </mxCell>
        <mxCell id="TXO3B46GOps3A5h4OWii-62" value="是" style="text;html=1;strokeColor=none;fillColor=none;align=center;verticalAlign=middle;whiteSpace=wrap;rounded=0;" parent="1" vertex="1">
          <mxGeometry x="600" y="590" width="40" height="20" as="geometry" />
        </mxCell>
        <mxCell id="TXO3B46GOps3A5h4OWii-63" value="否" style="text;html=1;strokeColor=none;fillColor=none;align=center;verticalAlign=middle;whiteSpace=wrap;rounded=0;" parent="1" vertex="1">
          <mxGeometry x="490" y="730" width="40" height="20" as="geometry" />
        </mxCell>
        <mxCell id="TXO3B46GOps3A5h4OWii-64" value="否" style="text;html=1;strokeColor=none;fillColor=none;align=center;verticalAlign=middle;whiteSpace=wrap;rounded=0;" parent="1" vertex="1">
          <mxGeometry x="490" y="1030" width="40" height="20" as="geometry" />
        </mxCell>
        <mxCell id="TXO3B46GOps3A5h4OWii-65" value="否" style="text;html=1;strokeColor=none;fillColor=none;align=center;verticalAlign=middle;whiteSpace=wrap;rounded=0;" parent="1" vertex="1">
          <mxGeometry x="490" y="1230" width="40" height="20" as="geometry" />
        </mxCell>
        <mxCell id="TXO3B46GOps3A5h4OWii-66" value="是" style="text;html=1;strokeColor=none;fillColor=none;align=center;verticalAlign=middle;whiteSpace=wrap;rounded=0;" parent="1" vertex="1">
          <mxGeometry x="600" y="790" width="40" height="20" as="geometry" />
        </mxCell>
        <mxCell id="TXO3B46GOps3A5h4OWii-67" value="是" style="text;html=1;strokeColor=none;fillColor=none;align=center;verticalAlign=middle;whiteSpace=wrap;rounded=0;" parent="1" vertex="1">
          <mxGeometry x="600" y="1090" width="40" height="20" as="geometry" />
        </mxCell>
        <mxCell id="TXO3B46GOps3A5h4OWii-68" value="是" style="text;html=1;strokeColor=none;fillColor=none;align=center;verticalAlign=middle;whiteSpace=wrap;rounded=0;" parent="1" vertex="1">
          <mxGeometry x="603" y="1290" width="40" height="20" as="geometry" />
        </mxCell>
        <mxCell id="TXO3B46GOps3A5h4OWii-69" value="canal-service/&lt;span style=&quot;font-size: 13.3333px;&quot;&gt;定时任务&lt;/span&gt;" style="rounded=0;whiteSpace=wrap;html=1;" parent="1" vertex="1">
          <mxGeometry x="1300" y="60" width="200" height="60" as="geometry" />
        </mxCell>
        <mxCell id="TXO3B46GOps3A5h4OWii-70" value="http" style="text;html=1;strokeColor=none;fillColor=none;align=center;verticalAlign=middle;whiteSpace=wrap;rounded=0;" parent="1" vertex="1">
          <mxGeometry x="250" y="150" width="40" height="20" as="geometry" />
        </mxCell>
        <mxCell id="TXO3B46GOps3A5h4OWii-71" value="http" style="text;html=1;strokeColor=none;fillColor=none;align=center;verticalAlign=middle;whiteSpace=wrap;rounded=0;" parent="1" vertex="1">
          <mxGeometry x="475" y="150" width="40" height="20" as="geometry" />
        </mxCell>
        <mxCell id="TXO3B46GOps3A5h4OWii-72" value="dubbo" style="text;html=1;strokeColor=none;fillColor=none;align=center;verticalAlign=middle;whiteSpace=wrap;rounded=0;" parent="1" vertex="1">
          <mxGeometry x="475" y="330" width="40" height="20" as="geometry" />
        </mxCell>
        <mxCell id="TXO3B46GOps3A5h4OWii-73" value="http" style="text;html=1;strokeColor=none;fillColor=none;align=center;verticalAlign=middle;whiteSpace=wrap;rounded=0;" parent="1" vertex="1">
          <mxGeometry x="675" y="430" width="40" height="20" as="geometry" />
        </mxCell>
        <mxCell id="TXO3B46GOps3A5h4OWii-74" value="http" style="text;html=1;strokeColor=none;fillColor=none;align=center;verticalAlign=middle;whiteSpace=wrap;rounded=0;" parent="1" vertex="1">
          <mxGeometry x="675" y="1130" width="40" height="20" as="geometry" />
        </mxCell>
        <mxCell id="TXO3B46GOps3A5h4OWii-75" value="http" style="text;html=1;strokeColor=none;fillColor=none;align=center;verticalAlign=middle;whiteSpace=wrap;rounded=0;" parent="1" vertex="1">
          <mxGeometry x="675" y="1330" width="40" height="20" as="geometry" />
        </mxCell>
        <mxCell id="TXO3B46GOps3A5h4OWii-76" value="删除已领取缓存，并删除过期记录" style="rounded=1;whiteSpace=wrap;html=1;absoluteArcSize=1;arcSize=14;strokeWidth=2;" parent="1" vertex="1">
          <mxGeometry x="1325" y="920" width="150" height="60" as="geometry" />
        </mxCell>
        <mxCell id="TXO3B46GOps3A5h4OWii-77" value="jins" style="text;html=1;strokeColor=none;fillColor=none;align=center;verticalAlign=middle;whiteSpace=wrap;rounded=0;" parent="1" vertex="1">
          <mxGeometry x="675" y="930" width="40" height="20" as="geometry" />
        </mxCell>
      </root>
    </mxGraphModel>
  </diagram>
</mxfile>
